<svg xmlns="http://www.w3.org/2000/svg" viewBox="0 0 512 512">
  <rect width="512" height="512" rx="96" fill="#0f172a"/>
  <path d="M256 80 L400 136 L400 256 C400 344 330 416 256 440 C182 416 112 344 112 256 L112 136 Z" fill="none" stroke="#3b82f6" stroke-width="20" stroke-linejoin="round"/>
  <path d="M256 140 L356 176 L356 256 C356 316 310 368 256 388 C202 368 156 316 156 256 L156 176 Z" fill="#1e3a5f"/>
  <circle cx="256" cy="240" r="36" fill="none" stroke="#06b6d4" stroke-width="14"/>
  <line x1="256" y1="200" x2="256" y2="168" stroke="#06b6d4" stroke-width="12" stroke-linecap="round"/>
  <line x1="256" y1="280" x2="256" y2="312" stroke="#06b6d4" stroke-width="12" stroke-linecap="round"/>
  <line x1="200" y1="240" x2="168" y2="240" stroke="#06b6d4" stroke-width="12" stroke-linecap="round"/>
  <line x1="312" y1="240" x2="344" y2="240" stroke="#06b6d4" stroke-width="12" stroke-linecap="round"/>
  <circle cx="256" cy="240" r="12" fill="#3b82f6"/>
</svg>
